<svg width="100" height="100" viewBox="0 0 100 100" fill="none" xmlns="http://www.w3.org/2000/svg">
<path d="M6.84375 0.78125L14.6992 88.9711L49.9477 98.7992L85.2945 88.9352L93.1562 0.78125H6.84375ZM76.8367 20.9859L74.2219 50.3648L74.2297 50.5234L74.2188 50.8883V50.8852L72.3609 71.4273L72.1562 73.2523L50 79.3805L49.9828 79.3961L27.8648 73.2336L26.3672 56.25H37.2133L37.9828 64.8859L50.0031 68.1438L50 68.15V68.1484L62.0648 64.8445L63.3398 50.7812H38.1188L37.9023 48.4039L37.4094 42.8344L37.1508 39.8438H64.2984L65.2859 28.9062H23.9375L23.7211 26.5305L23.2289 20.9594L22.9695 17.9688H77.0953L76.8367 20.9859Z" fill="#6E5245"/>
</svg>
