<svg width="100" height="100" viewBox="0 0 100 100" fill="none" xmlns="http://www.w3.org/2000/svg">
<path fill-rule="evenodd" clip-rule="evenodd" d="M49.9999 3.98672C23.9476 3.98672 2.82178 25.1078 2.82178 51.1648C2.82178 72.0102 16.3397 89.6938 35.0851 95.9328C37.4421 96.3703 38.3077 94.9094 38.3077 93.6633C38.3077 92.5383 38.264 88.8219 38.2437 84.8797C25.1187 87.7336 22.3491 79.3133 22.3491 79.3133C20.203 73.8602 17.1108 72.4102 17.1108 72.4102C12.8296 69.482 17.4335 69.543 17.4335 69.543C22.1702 69.875 24.6655 74.4047 24.6655 74.4047C28.8733 81.6156 35.7022 79.5313 38.3944 78.3266C38.8179 75.2774 40.0405 73.1953 41.3897 72.0172C30.9108 70.8258 19.8944 66.7797 19.8944 48.7024C19.8944 43.5516 21.7382 39.343 24.7562 36.0383C24.2655 34.8508 22.6507 30.0523 25.2124 23.5539C25.2124 23.5539 29.1733 22.2859 38.189 28.3899C41.953 27.3438 45.9897 26.818 49.9999 26.8C54.0077 26.818 58.0468 27.3422 61.8179 28.3883C70.8226 22.2844 74.7788 23.5523 74.7788 23.5523C77.3468 30.05 75.7319 34.8492 75.2421 36.0367C78.2671 39.3414 80.0976 43.55 80.0976 48.7008C80.0976 66.8211 69.0608 70.8102 58.5554 71.9789C60.2483 73.443 61.7561 76.3149 61.7561 80.7156C61.7561 87.0281 61.7015 92.1086 61.7015 93.6625C61.7015 94.918 62.5515 96.3891 64.9421 95.9258C83.6765 89.6805 97.1788 72.0023 97.1788 51.1648C97.178 25.1094 76.0546 3.98672 49.9999 3.98672Z" fill="#6E5245"/>
<path d="M20.6906 71.7234C20.5867 71.9578 20.218 72.0281 19.882 71.868C19.5383 71.7148 19.3469 71.3953 19.4578 71.1602C19.5594 70.918 19.9289 70.8516 20.2703 71.0133C20.614 71.1672 20.8094 71.4898 20.6898 71.7242L20.6906 71.7234ZM22.6015 73.8555C22.3773 74.0641 21.9375 73.9672 21.639 73.6367C21.3297 73.3086 21.2719 72.8688 21.5008 72.657C21.7336 72.4492 22.1601 72.5477 22.4695 72.8758C22.7773 73.2086 22.8383 73.6445 22.6023 73.8563L22.6015 73.8555ZM24.4625 76.5719C24.1734 76.7734 23.7 76.5852 23.4078 76.1656C23.1187 75.7453 23.1187 75.2414 23.4156 75.0406C23.707 74.8391 24.1734 75.0211 24.4703 75.4367C24.7578 75.8625 24.7578 76.3672 24.4625 76.5719ZM27.0101 79.1977C26.7523 79.4828 26.2008 79.4063 25.7976 79.018C25.3859 78.6375 25.2711 78.0961 25.5297 77.8117C25.7922 77.5258 26.3461 77.6055 26.7515 77.9914C27.1633 78.3711 27.2875 78.9133 27.0117 79.1969L27.0101 79.1977ZM30.5258 80.7219C30.4109 81.0914 29.8812 81.2594 29.3461 81.1016C28.8125 80.9398 28.4633 80.5078 28.5726 80.1344C28.682 79.7617 29.2156 79.5875 29.7539 79.7555C30.2875 79.9164 30.6367 80.3461 30.5258 80.7219ZM34.3875 81.0039C34.4008 81.393 33.9476 81.7149 33.3875 81.7227C32.8226 81.7359 32.3656 81.4203 32.3601 81.0375C32.3601 80.6445 32.8039 80.3266 33.3679 80.3156C33.9281 80.3055 34.3883 80.618 34.3883 81.0031L34.3875 81.0039ZM37.9797 80.393C38.0469 80.7719 37.657 81.1617 37.1 81.2656C36.5531 81.3672 36.0453 81.1313 35.975 80.7555C35.9078 80.3664 36.3047 79.9766 36.8515 79.8758C37.4094 79.7797 37.9094 80.0078 37.9797 80.393Z" fill="#6E5245"/>
</svg>
