<svg width="100" height="100" viewBox="0 0 100 100" fill="none" xmlns="http://www.w3.org/2000/svg">
<path d="M37.2007 76.6562C22.2069 80.8453 46.3233 89.4992 65.4155 81.3195C62.2882 80.1039 60.0452 78.7016 60.0452 78.7016C51.5319 80.3109 47.5827 80.4375 39.8546 79.5547C33.4765 78.8242 37.2007 76.6562 37.2007 76.6562ZM63.1296 68.4844C51.8452 70.6555 45.3272 70.5859 37.0718 69.7344C30.6882 69.0742 34.8671 65.9805 34.8671 65.9805C18.3538 71.4617 44.0601 77.6812 67.1397 70.9305C64.6866 70.0664 63.1296 68.4844 63.1296 68.4844ZM71.9726 21.1601C71.9733 21.1601 38.589 29.4953 54.5327 47.8687C59.239 53.2867 53.2983 58.1578 53.2983 58.1578C53.2983 58.1578 65.2429 51.993 59.7585 44.2695C54.6343 37.0703 50.7062 33.4937 71.9726 21.1601ZM79.7835 84.5539C79.7835 84.5539 82.5405 86.8273 76.746 88.5844C65.7288 91.9219 30.8819 92.9281 21.203 88.718C17.7265 87.2039 24.2491 85.1047 26.3015 84.6617C28.4413 84.1984 29.6632 84.2828 29.6632 84.2828C25.7944 81.5586 4.65302 89.6344 18.9272 91.9508C57.8499 98.2601 89.878 89.1094 79.7835 84.5539ZM66.4062 60.8562C68.2772 59.5797 70.8616 58.4711 70.8616 58.4711C70.8616 58.4711 63.4991 59.7875 56.164 60.4039C47.1843 61.157 37.5522 61.3055 32.7171 60.6586C21.2702 59.1281 38.9929 54.918 38.9929 54.918C38.9929 54.918 32.1085 54.4523 23.646 58.5461C13.6366 63.3859 48.4046 65.5922 66.4062 60.8562ZM70.7882 72.6883C70.7038 72.9148 70.4226 73.1695 70.4226 73.1695C94.8546 66.7469 85.8718 50.5297 74.1897 54.6344C73.1647 54.9969 72.6272 55.8398 72.6272 55.8398C72.6272 55.8398 73.2749 55.5789 74.7194 55.2773C80.6249 54.0469 89.0858 63.1828 70.7882 72.6883ZM50.1413 54.7414C46.5366 46.5937 34.3132 39.4656 50.1468 26.9609C69.8897 11.3773 59.7593 1.23984 59.7593 1.23984C63.8452 17.3398 45.3444 22.2031 38.6663 32.2297C34.1186 39.0617 40.8983 46.4031 50.1413 54.7414ZM71.4491 95.1695C56.4593 97.9914 37.9694 97.6625 27.0061 95.8523C27.0061 95.8523 29.2515 97.7117 40.7921 98.4547C58.3515 99.5773 85.3233 97.8297 85.9608 89.5203C85.9616 89.5203 84.7343 92.6703 71.4491 95.1695Z" fill="#6E5245"/>
</svg>
