<svg width="100" height="100" viewBox="0 0 100 100" fill="none" xmlns="http://www.w3.org/2000/svg">
<path d="M1.5625 0.78125V98.4375H99.2188V0.78125H1.5625ZM53.218 83.9945C51.7766 86.9234 49.025 88.8477 45.8367 89.7766C40.9375 90.9016 36.2516 90.2602 32.7656 88.168C30.4328 86.7367 28.6109 84.5336 27.3742 81.9953L34.8117 77.4406C34.8766 77.468 35.0719 77.8211 35.3328 78.2773C36.2812 79.8664 37.0992 80.9914 38.707 81.7812C40.2867 82.3203 43.7547 82.6648 45.0938 79.8852C45.9117 78.4711 45.6516 73.9258 45.6516 68.8969C45.6508 60.9945 45.6875 53.125 45.6875 45.3125H54.8352C54.8352 53.9062 54.882 62.0453 54.8352 70.4313C54.8547 75.5719 55.3008 80.1547 53.218 83.9945ZM91.1664 81.4102C87.9867 92.2867 70.2586 92.6398 63.1742 85.4539C61.6773 83.7625 60.7391 82.8789 59.8461 80.9266C63.6109 78.7609 63.6109 78.7609 67.2742 76.6414C69.2641 79.7 71.1039 81.382 74.4141 82.0703C78.9047 82.6188 83.4227 81.0758 82.4094 76.3062C81.368 72.4109 73.2141 71.4633 67.6648 67.2977C62.0312 63.5141 60.7109 54.3203 65.3406 49.0672C66.8836 47.1242 69.5148 45.6742 72.2758 44.9773L75.157 44.6047C80.6891 44.493 84.1469 45.9539 86.6852 48.7883C87.3914 49.5039 87.968 50.2758 89.0461 51.9484C86.0992 53.8266 86.1086 53.8086 81.8875 56.5414C80.9859 54.5992 79.4898 53.3805 77.9086 52.8508C75.4539 52.107 72.3586 52.9156 71.7164 55.5094C71.4938 56.3086 71.5398 57.0523 71.8938 58.3727C72.8883 60.6406 76.2258 61.6266 79.2195 63.0023C87.8375 66.4977 90.7477 70.2453 91.4633 74.7063C92.1523 78.5469 91.2969 81.0383 91.1664 81.4102Z" fill="#6E5245"/>
</svg>
