<svg width="40" height="40" viewBox="0 0 40 40" fill="none" xmlns="http://www.w3.org/2000/svg">
<path fill-rule="evenodd" clip-rule="evenodd" d="M20 40C31.0457 40 40 31.0457 40 20C40 8.9543 31.0457 0 20 0C8.9543 0 0 8.9543 0 20C0 31.0457 8.9543 40 20 40Z" fill="#B28167"/>
<path fill-rule="evenodd" clip-rule="evenodd" d="M32.7779 31.6667H27.7554V23.1121C27.7554 20.7667 26.8642 19.456 25.0078 19.456C22.9882 19.456 21.9331 20.82 21.9331 23.1121V31.6667H17.0928V15.3704H21.9331V17.5655C21.9331 17.5655 23.3885 14.8725 26.8467 14.8725C30.3033 14.8725 32.7779 16.9833 32.7779 21.3489V31.6667ZM11.3182 13.2365C9.66951 13.2365 8.3335 11.89 8.3335 10.2294C8.3335 8.56872 9.66951 7.22223 11.3182 7.22223C12.967 7.22223 14.3022 8.56872 14.3022 10.2294C14.3022 11.89 12.967 13.2365 11.3182 13.2365ZM8.81888 31.6667H13.8661V15.3704H8.81888V31.6667Z" fill="white"/>
</svg>
