<svg width="100" height="100" viewBox="0 0 100 100" fill="none" xmlns="http://www.w3.org/2000/svg">
<path d="M38.5389 48.4375H61.3193C67.6607 48.4375 72.6561 43.0719 72.6561 36.7039V14.9867C72.6561 8.80546 67.4748 4.16171 61.285 3.13046C57.3678 2.47812 53.3201 2.18124 49.4201 2.19999C45.5217 2.21796 41.9107 2.54999 38.635 3.13046C28.9826 4.83437 27.3435 8.40468 27.3435 14.9867V23.4375H49.9998V26.5625H18.5748C11.9467 26.5625 6.14199 30.5531 4.32714 38.1336C2.23261 46.8211 2.13964 52.1328 4.32714 61.2039C5.94824 67.9555 9.81933 72.6562 16.4482 72.6562H24.2185V62.4625C24.2185 54.9336 30.8029 48.4375 38.5389 48.4375ZM37.1029 17.8828C34.7389 17.8828 32.8232 15.9461 32.8232 13.5508C32.8232 11.1453 34.7381 9.19062 37.1029 9.19062C39.4584 9.19062 41.3834 11.1453 41.3834 13.5508C41.3826 15.9461 39.4576 17.8828 37.1029 17.8828ZM95.5318 38.1336C93.8928 31.5336 90.7639 26.5625 84.1264 26.5625H75.7811V36.7039C75.7811 44.5555 68.9107 50.7812 61.3193 50.7812H38.5389C32.2982 50.7812 27.3435 56.5047 27.3435 62.7547V84.4734C27.3435 90.6531 32.6131 94.2891 38.642 96.0625C45.8623 98.1851 52.6998 98.5687 61.3381 96.0625C67.0795 94.3992 72.6561 91.0539 72.6561 84.4734V75.7812H49.9998V72.6562H84.1264C90.7545 72.6562 93.2256 68.1437 95.5318 61.2031C97.9123 54.0586 97.81 47.2976 95.5318 38.1336ZM62.7545 81.5758C65.1193 81.5758 67.035 83.5125 67.035 85.9094C67.035 88.3125 65.1201 90.268 62.7545 90.268C60.399 90.268 58.4748 88.3133 58.4748 85.9094C58.4748 83.5125 60.399 81.5758 62.7545 81.5758Z" fill="#6E5245"/>
</svg>
