<svg width="100" height="100" viewBox="0 0 100 100" fill="none" xmlns="http://www.w3.org/2000/svg">
<path d="M50 58.125C54.9188 58.125 58.9063 54.1375 58.9063 49.2187C58.9063 44.2999 54.9188 40.3125 50 40.3125C45.0812 40.3125 41.0938 44.2999 41.0938 49.2187C41.0938 54.1375 45.0812 58.125 50 58.125Z" fill="#6E5245"/>
<path d="M83.8281 34.5312C82.1094 33.9062 80.3125 33.2812 78.4375 32.7343C78.9062 30.8593 79.2969 28.9843 79.6094 27.1875C81.25 16.875 79.4531 9.60934 74.4531 6.79684C72.9688 5.93747 71.3281 5.54684 69.4531 5.54684C63.9844 5.54684 57.0312 9.60934 50 16.4062C42.9688 9.60934 36.0156 5.54684 30.5469 5.54684C28.6719 5.54684 27.0312 5.93747 25.5469 6.79684C20.5469 9.68747 18.75 16.9531 20.3906 27.1875C20.7031 28.9843 21.0938 30.8593 21.5625 32.7343C19.6875 33.2812 17.8906 33.8281 16.1719 34.5312C6.40625 38.2812 1.09375 43.4375 1.09375 49.2187C1.09375 55 6.48438 60.1562 16.1719 63.9062C17.8906 64.5312 19.6875 65.1562 21.5625 65.7031C21.0938 67.5781 20.7031 69.4531 20.3906 71.25C18.75 81.5625 20.5469 88.8281 25.5469 91.6406C27.0312 92.5 28.6719 92.8906 30.5469 92.8906C36.0937 92.8906 43.0469 88.8281 50 82.0312C57.0312 88.8281 63.9844 92.8906 69.4531 92.8906C71.3281 92.8906 72.9688 92.5 74.4531 91.6406C79.4531 88.75 81.25 81.4843 79.6094 71.25C79.2969 69.4531 78.9062 67.5781 78.4375 65.7031C80.3125 65.1562 82.1094 64.6093 83.8281 63.9062C93.5938 60.1562 98.9062 55 98.9062 49.2187C98.9062 43.4375 93.5938 38.2812 83.8281 34.5312ZM72.2656 10.7031C75.4688 12.5781 76.5625 18.3593 75.2344 26.5625C75 28.2031 74.6094 29.9218 74.1406 31.7187C70.0781 30.7812 65.7812 30.1562 61.25 29.7656C58.5938 26.0156 55.8594 22.6562 53.125 19.6093C58.9062 13.9062 64.7656 9.99997 69.5312 9.99997C70.5469 9.99997 71.4844 10.2343 72.2656 10.7031ZM63.5156 57.0312C62.1094 59.5312 60.4687 62.0312 58.75 64.5312C55.8594 64.7656 52.9688 64.8437 50 64.8437C46.9531 64.8437 44.0625 64.7656 41.25 64.5312C39.5312 62.0312 37.9688 59.5312 36.5625 57.0312C35.0781 54.4531 33.6719 51.7968 32.4219 49.2187C33.6719 46.6406 35.0781 43.9843 36.5625 41.4062C37.9688 38.9062 39.6094 36.4062 41.3281 33.9062C44.2188 33.6718 47.1094 33.5937 50.0781 33.5937C53.125 33.5937 56.0156 33.6718 58.8281 33.9062C60.5469 36.4062 62.1094 38.9062 63.5156 41.4062C65 43.9843 66.4062 46.6406 67.6562 49.2187C66.3281 51.7968 65 54.375 63.5156 57.0312ZM70 54.4531C71.1719 57.1875 72.1094 59.8437 72.9688 62.5C70.3125 63.125 67.5 63.5937 64.5312 63.9843C65.4688 62.5 66.4844 60.9375 67.3438 59.2968C68.2812 57.6562 69.1406 56.0156 70 54.4531ZM50 75.625C48.125 73.5937 46.3281 71.4062 44.6094 69.1406C46.4062 69.2187 48.2031 69.2968 50 69.2968C51.7969 69.2968 53.5938 69.2187 55.3906 69.1406C53.6719 71.4062 51.875 73.5937 50 75.625ZM35.4688 63.9062C32.5 63.5156 29.6875 63.0468 27.0312 62.4218C27.8906 59.8437 28.8281 57.1093 30 54.375C30.8594 55.9375 31.7187 57.5781 32.6562 59.1406C33.5938 60.8593 34.5312 62.3437 35.4688 63.9062ZM30 43.9843C28.8281 41.25 27.8906 38.5937 27.0312 35.9375C29.6875 35.3125 32.5 34.8437 35.4688 34.4531C34.5312 35.9375 33.5156 37.5 32.6562 39.1406C31.7187 40.7812 30.8594 42.4218 30 43.9843ZM50 22.8125C51.875 24.8437 53.6719 27.0312 55.3906 29.2968C53.5938 29.2187 51.7969 29.1406 50 29.1406C48.2031 29.1406 46.4062 29.2187 44.6094 29.2968C46.3281 27.0312 48.125 24.8437 50 22.8125ZM67.3438 39.2187L64.5312 34.5312C67.5 34.9218 70.3125 35.3906 72.9688 36.0156C72.1094 38.5937 71.1719 41.3281 70 44.0625C69.1406 42.4218 68.2812 40.7812 67.3438 39.2187ZM24.7656 26.5625C23.4375 18.3593 24.5312 12.5781 27.7344 10.7031C28.5156 10.2343 29.4531 9.99997 30.4687 9.99997C35.1562 9.99997 41.0156 13.8281 46.875 19.6093C44.1406 22.5781 41.4062 26.0156 38.75 29.7656C34.2187 30.1562 29.9219 30.8593 25.8594 31.7187C25.3906 29.9218 25.0781 28.2031 24.7656 26.5625ZM5.46875 49.2187C5.46875 45.5468 9.92188 41.6406 17.7344 38.75C19.2969 38.125 21.0156 37.5781 22.7344 37.1093C23.9844 41.0156 25.5469 45.1562 27.4219 49.2968C25.5469 53.4375 23.9062 57.5 22.7344 61.4062C11.9531 58.2812 5.46875 53.5937 5.46875 49.2187ZM27.7344 87.7343C24.5312 85.8593 23.4375 80.0781 24.7656 71.875C25 70.2343 25.3906 68.5156 25.8594 66.7187C29.9219 67.6562 34.2187 68.2812 38.75 68.6718C41.4062 72.4218 44.1406 75.7812 46.875 78.8281C41.0938 84.5312 35.2344 88.4375 30.4687 88.4375C29.4531 88.4375 28.5156 88.2031 27.7344 87.7343ZM75.2344 71.875C76.5625 80.0781 75.4688 85.8593 72.2656 87.7343C71.4844 88.2031 70.5469 88.4375 69.5312 88.4375C64.8438 88.4375 58.9844 84.6093 53.125 78.8281C55.8594 75.8593 58.5938 72.4218 61.25 68.6718C65.7812 68.2812 70.0781 67.5781 74.1406 66.7187C74.6094 68.5156 74.9219 70.2343 75.2344 71.875ZM82.2656 59.6875C80.7031 60.3125 78.9844 60.8593 77.2656 61.3281C76.0156 57.4218 74.4531 53.2812 72.5781 49.1406C74.4531 45 76.0938 40.9375 77.2656 37.0312C88.0469 40.1562 94.5312 44.8437 94.5312 49.2187C94.5312 52.8906 90 56.7968 82.2656 59.6875Z" fill="#6E5245"/>
</svg>
