<svg width="100" height="100" viewBox="0 0 100 100" fill="none" xmlns="http://www.w3.org/2000/svg">
<path d="M1.5625 49.9297V98.7578H99.2188V1.10156H1.5625V49.9297ZM80.2578 46.0234C82.5968 46.5662 84.7226 47.7895 86.3672 49.5391C87.2725 50.4816 88.0596 51.531 88.7109 52.6641C88.7109 52.7891 84.4922 55.6406 81.9219 57.2344C81.8281 57.2969 81.4531 56.8906 81.0391 56.2734C80.5698 55.4638 79.9032 54.7862 79.1012 54.304C78.2993 53.8217 77.3882 53.5505 76.4531 53.5156C73.4922 53.3125 71.5859 54.8672 71.6016 57.4219C71.5771 58.0579 71.7227 58.689 72.0234 59.25C72.6719 60.6016 73.8828 61.4062 77.6797 63.0469C84.6719 66.0547 87.6641 68.0391 89.5234 70.8594C91.6016 73.9844 92.0625 79.0312 90.6562 82.7656C89.0938 86.8281 85.2656 89.5859 79.8516 90.5C77.3788 90.7832 74.8803 90.757 72.4141 90.4219C68.6501 89.8113 65.178 88.0191 62.5 85.3047C61.6016 84.3125 59.8516 81.7266 59.9609 81.5391C60.2461 81.3273 60.5464 81.1367 60.8594 80.9688L64.4531 78.9062L67.2578 77.2812L67.8438 78.1484C68.8326 79.563 70.0911 80.7683 71.5469 81.6953C74.6719 83.3359 78.9375 83.1094 81.0469 81.2109C81.7551 80.5153 82.1969 79.5933 82.2954 78.6054C82.3939 77.6176 82.1429 76.6265 81.5859 75.8047C80.8047 74.7188 79.2422 73.8047 74.875 71.8984C69.8359 69.7266 67.6641 68.3828 65.6797 66.2422C64.4409 64.8296 63.5263 63.163 63 61.3594C62.6075 59.2988 62.5494 57.1884 62.8281 55.1094C63.8672 50.2422 67.5156 46.8438 72.8438 45.8359C75.3113 45.5306 77.8107 45.5991 80.2578 46.0391V46.0234ZM57.3359 50.1172V54.1172H44.6562V90.2344H35.6641V54.1094H22.9531V50.2031C22.919 48.8584 22.9555 47.5128 23.0625 46.1719C23.1094 46.1094 30.875 46.0781 40.25 46.0938H57.2891L57.3359 50.1172Z" fill="#6E5245"/>
</svg>
